<?xml version="1.0" standalone="no"?>
<!DOCTYPE svg PUBLIC "-//W3C//DTD SVG 1.1//EN" "http://www.w3.org/Graphics/SVG/1.1/DTD/svg11.dtd">
<svg xmlns="http://www.w3.org/2000/svg" version="1.1" x="0px" y="0px" viewBox="0 0 512 512" enable-background="new 0 0 512 512" xml:space="preserve">
    <g>
        <path style="fill: #E41E26;" d="M272.24,175c-10.35,4.079-27.267,4.079-37.579,0L48.178,101.127c-10.326-4.093-10.326-10.782,0-14.877 l186.483-73.841c10.312-4.097,27.229-4.097,37.579,0L458.712,86.25c10.325,4.096,10.325,10.784,0,14.877L272.24,175z"></path>
        <path style="fill: #e8e9ea;" d="M243.068,477.624c0,11.132-8.449,16.852-18.79,12.792L37.797,416.574 c-10.327-4.096-18.789-16.508-18.789-27.649V129.978c0-11.091,8.462-16.847,18.789-12.759l186.482,73.863 c10.34,4.074,18.79,16.518,18.79,27.646V477.624z"></path>
        <path style="fill: #595a5c;" d="M263.78,477.55c0,11.132,8.46,16.841,18.812,12.783l186.465-73.851c10.336-4.099,18.79-16.547,18.79-27.642 V129.918c0-11.119-8.454-16.885-18.79-12.784l-186.465,73.836c-10.352,4.103-18.812,16.551-18.812,27.646V477.55z"></path>
    </g>
</svg>
