<?xml version="1.0" encoding="UTF-8" standalone="no"?>
<!-- Generator: Adobe Illustrator 19.0.0, SVG Export Plug-In . SVG Version: 6.00 Build 0)  -->
<svg id="Layer_1" xmlns="http://www.w3.org/2000/svg" xml:space="preserve" viewBox="0 0 16 16" version="1.1" y="0px" x="0px" xmlns:xlink="http://www.w3.org/1999/xlink" enable-background="new 0 0 16 16">
<g id="XMLID_89_">
	<path id="XMLID_223_" d="m15.807 3.298c-0.129-0.185-0.3-0.317-0.513-0.395l-5.924-2.154c-0.123-0.045-0.247-0.067-0.37-0.067s-0.247 0.022-0.37 0.067l-5.923 2.154c-0.213 0.079-0.384 0.21-0.513 0.395-0.13 0.185-0.194 0.39-0.194 0.614v4.088h0.013c0.629 0 1.191 0.03 1.626 0.475l0.913 0.815c0.417 0.417 0.645 0.899 0.661 1.494 0.593 0.017 1.127 0.221 1.547 0.641l0.929 0.915c0.437 0.437 0.668 0.99 0.668 1.612 0 0.172-0.02 0.336-0.055 0.497l0.184 0.099c0.157 0.09 0.328 0.134 0.513 0.134s0.356-0.045 0.513-0.135l5.923-3.231c0.174-0.095 0.311-0.227 0.412-0.396 0.102-0.168 0.153-0.35 0.153-0.546v-6.462c0-0.224-0.065-0.429-0.193-0.614zm-6.807 2.735l-5.872-2.137 5.872-2.137 5.873 2.137-5.873 2.137zm6 4.341l-6 2.936v-6.327l6-1.96v5.351z"/>
	<path id="XMLID_93_" d="m7.357 13.947c0 0.357-0.126 0.659-0.379 0.906l-0.656 0.652c-0.247 0.247-0.549 0.371-0.906 0.371-0.36 0-0.664-0.126-0.911-0.379l-0.92-0.924c-0.247-0.247-0.37-0.549-0.37-0.906 0-0.366 0.131-0.677 0.393-0.933l-0.393-0.393c-0.256 0.262-0.566 0.393-0.929 0.393-0.357 0-0.661-0.125-0.911-0.375l-0.928-0.929c-0.25-0.25-0.375-0.553-0.375-0.911s0.126-0.659 0.379-0.906l0.656-0.653c0.247-0.247 0.549-0.37 0.906-0.37 0.36 0 0.664 0.126 0.911 0.379l0.92 0.924c0.247 0.247 0.371 0.549 0.371 0.906 0 0.366-0.131 0.677-0.393 0.933l0.393 0.393c0.256-0.262 0.565-0.393 0.928-0.393 0.357 0 0.661 0.125 0.911 0.375l0.929 0.928c0.249 0.251 0.374 0.554 0.374 0.912zm-3.995-3.148c0-0.119-0.042-0.22-0.125-0.303l-0.92-0.924c-0.083-0.084-0.185-0.125-0.304-0.125-0.116 0-0.217 0.04-0.304 0.12l-0.656 0.652c-0.083 0.083-0.125 0.183-0.125 0.299 0 0.119 0.042 0.22 0.125 0.304l0.929 0.928c0.08 0.08 0.181 0.121 0.303 0.121 0.125 0 0.232-0.046 0.322-0.138-0.009-0.009-0.037-0.036-0.085-0.083s-0.08-0.078-0.096-0.096c-0.016-0.018-0.039-0.046-0.067-0.085s-0.048-0.077-0.058-0.114-0.016-0.078-0.016-0.123c0-0.119 0.042-0.22 0.125-0.304 0.083-0.083 0.185-0.125 0.304-0.125 0.045 0 0.085 0.005 0.123 0.016 0.037 0.01 0.075 0.03 0.114 0.058s0.067 0.051 0.085 0.067c0.018 0.017 0.05 0.049 0.096 0.096s0.074 0.076 0.083 0.085c0.097-0.092 0.147-0.201 0.147-0.326zm3.138 3.148c0-0.119-0.042-0.22-0.125-0.304l-0.928-0.928c-0.083-0.083-0.185-0.125-0.304-0.125-0.125 0-0.232 0.048-0.321 0.143 0.009 0.009 0.037 0.036 0.085 0.083s0.08 0.078 0.096 0.096 0.039 0.046 0.067 0.085c0.028 0.039 0.048 0.077 0.058 0.114s0.016 0.078 0.016 0.123c0 0.119-0.042 0.22-0.125 0.303s-0.185 0.125-0.303 0.125c-0.045 0-0.086-0.005-0.123-0.016-0.037-0.01-0.075-0.03-0.114-0.058s-0.067-0.051-0.085-0.067-0.05-0.048-0.096-0.096-0.074-0.076-0.083-0.085c-0.098 0.092-0.147 0.201-0.147 0.326 0 0.119 0.042 0.22 0.125 0.303l0.92 0.924c0.08 0.08 0.182 0.121 0.304 0.121 0.119 0 0.22-0.039 0.303-0.116l0.656-0.652c0.082-0.084 0.124-0.184 0.124-0.299z"/>
</g>
</svg>
