<?xml version="1.0" encoding="UTF-8"?>
<!DOCTYPE svg PUBLIC "-//W3C//DTD SVG 1.1//EN" "http://www.w3.org/Graphics/SVG/1.1/DTD/svg11.dtd">
<svg version="1.1" xmlns="http://www.w3.org/2000/svg" xmlns:xlink="http://www.w3.org/1999/xlink" x="0px" y="0px" width="301" height="34" viewBox="0, 0, 301, 34">
  <g id="#sugarcrm-logo">
    <path class="sc-top" d="M17.531,12.073 C16.815,12.355 15.644,12.355 14.93,12.073 L2.02,6.959 C1.305,6.676 1.305,6.213 2.02,5.929 L14.93,0.817 C15.644,0.534 16.815,0.534 17.531,0.817 L30.44,5.929 C31.155,6.213 31.155,6.676 30.44,6.959 L17.531,12.073" fill="#D1232A"/>
    <path class="sc-left" d="M15.512,33.023 C15.512,33.794 14.927,34.19 14.211,33.909 L1.301,28.797 C0.586,28.514 -0,27.654 -0,26.883 L-0,8.957 C-0,8.188 0.586,7.79 1.301,8.073 L14.211,13.186 C14.927,13.469 15.512,14.33 15.512,15.101 L15.512,33.023" fill="#2F2F2C"/>
    <path class="sc-right" d="M16.945,33.019 C16.945,33.789 17.531,34.185 18.248,33.903 L31.156,28.791 C31.872,28.507 32.457,27.645 32.457,26.877 L32.457,8.952 C32.457,8.183 31.872,7.783 31.156,8.067 L18.248,13.179 C17.531,13.463 16.945,14.325 16.945,15.093 L16.945,33.019" fill="#C8C7C1"/>
    <path class="sc-dark" d="M43.4,22.087 L50.206,22.077 L50.206,22.486 C50.206,23.349 50.416,23.937 50.834,24.228 C51.253,24.532 52.129,24.685 53.465,24.685 L62.133,24.685 C62.984,24.685 63.593,24.536 63.959,24.253 C64.321,23.964 64.498,23.481 64.498,22.811 C64.498,22.136 64.294,21.64 63.872,21.352 C63.454,21.054 62.547,20.862 61.157,20.755 L50.312,20.513 C47.593,20.431 45.757,19.917 44.799,18.97 C43.843,18.019 43.367,16.275 43.367,13.769 C43.367,12.475 43.491,11.414 43.74,10.569 C43.993,9.736 44.401,9.028 44.962,8.472 C45.617,7.847 46.478,7.403 47.547,7.141 C48.619,6.872 50.352,6.745 52.755,6.745 L63.281,6.745 C65.885,6.745 67.766,7.216 68.916,8.166 C70.061,9.12 70.631,10.655 70.631,12.791 C70.631,12.934 70.631,13.086 70.627,13.249 C70.625,13.408 70.611,13.67 70.576,14.033 L63.935,14.033 L63.935,13.942 C63.935,13.2 63.749,12.65 63.369,12.281 C62.985,11.91 62.424,11.727 61.66,11.727 L53.706,11.727 C52.385,11.727 51.511,11.857 51.087,12.119 C50.66,12.381 50.447,12.847 50.447,13.495 C50.447,14.141 50.641,14.609 51.023,14.9 C51.406,15.183 52.116,15.368 53.153,15.451 L64.498,15.633 C67.087,15.705 68.906,16.288 69.96,17.38 C71.023,18.474 71.545,20.344 71.545,22.981 C71.545,24.552 71.352,25.77 70.967,26.626 C70.576,27.493 69.919,28.22 68.998,28.825 C68.388,29.217 67.568,29.487 66.526,29.655 C65.49,29.823 63.971,29.907 62.008,29.907 L52.812,29.907 C49.032,29.907 46.505,29.481 45.226,28.633 C43.951,27.784 43.309,26.203 43.309,23.899 C43.309,23.755 43.319,23.536 43.333,23.23 C43.347,22.92 43.373,22.538 43.4,22.087" fill="#2F2F2C"/>
    <path class="sc-dark" d="M73.938,7.027 L80.823,7.027 L80.823,20.427 C80.823,21.95 81.165,22.975 81.858,23.493 C82.556,24.019 84.062,24.278 86.391,24.278 L90.314,24.278 C92.253,24.278 93.548,24.001 94.208,23.448 C94.867,22.895 95.192,21.893 95.192,20.427 L95.192,7.027 L102.119,7.027 L102.119,22.562 C102.119,25.233 101.396,27.122 99.97,28.238 C98.535,29.343 96.053,29.907 92.518,29.907 L84.804,29.907 C80.665,29.907 77.817,29.376 76.266,28.315 C74.706,27.247 73.938,25.331 73.938,22.562 L73.938,7.027" fill="#2F2F2C"/>
    <path class="sc-dark" d="M126.447,15.147 L126.447,15.085 C126.447,14.065 126.14,13.36 125.507,12.984 C124.877,12.602 123.468,12.413 121.261,12.413 L117.234,12.413 C114.882,12.413 113.371,12.694 112.705,13.259 C112.044,13.825 111.71,15.012 111.71,16.827 L111.71,19.981 C111.71,21.605 112.084,22.729 112.829,23.331 C113.586,23.937 115.061,24.237 117.271,24.237 L121.261,24.237 C123.243,24.237 124.603,24.061 125.358,23.702 C126.102,23.345 126.48,22.729 126.48,21.843 C126.48,21.722 126.464,21.521 126.42,21.234 C126.42,21.205 126.42,21.177 126.42,21.165 L118.3,21.165 L118.3,16.583 L133.624,16.583 L133.624,24.009 C133.624,26.148 132.826,27.665 131.252,28.558 C129.675,29.457 126.937,29.907 123.02,29.907 L115.339,29.907 C112.984,29.907 111.251,29.778 110.124,29.527 C109.008,29.27 108.055,28.838 107.276,28.227 C106.365,27.512 105.697,26.632 105.284,25.573 C104.876,24.526 104.663,23.198 104.663,21.601 L104.663,15.42 C104.663,12.196 105.433,9.932 106.964,8.661 C108.492,7.381 111.275,6.745 115.309,6.745 L123.02,6.745 C125.516,6.745 127.357,6.858 128.541,7.075 C129.724,7.299 130.655,7.668 131.339,8.2 C132.046,8.745 132.573,9.476 132.913,10.399 C133.255,11.321 133.419,12.485 133.419,13.871 C133.419,14.206 133.419,14.466 133.419,14.646 C133.405,14.83 133.401,14.995 133.392,15.147 L126.447,15.147" fill="#2F2F2C"/>
    <path class="sc-dark" d="M145.802,20.431 L154.492,20.431 L150.104,12.433 L145.802,20.431 z M140.982,29.624 L133.445,29.624 L145.802,7.027 L154.615,7.027 L166.739,29.624 L159.157,29.624 L156.962,25.859 L143.185,25.859 L140.982,29.624" fill="#2F2F2C"/>
    <path class="sc-dark" d="M185.461,12.662 L174.497,12.662 L174.497,18.203 L185.461,18.203 C186.384,18.203 187.025,17.985 187.396,17.557 C187.767,17.125 187.938,16.346 187.938,15.212 C187.938,14.322 187.747,13.67 187.35,13.267 C186.958,12.857 186.332,12.662 185.461,12.662 z M185.715,7.027 C189.3,7.027 191.748,7.56 193.043,8.625 C194.338,9.69 194.991,11.631 194.991,14.449 C194.991,16.406 194.705,17.861 194.123,18.813 C193.539,19.763 192.572,20.407 191.22,20.722 C192.415,21.009 193.311,21.511 193.911,22.227 C194.512,22.948 194.807,23.876 194.807,25.024 L194.807,29.624 L187.89,29.624 L187.89,26.203 C187.89,25.315 187.673,24.703 187.256,24.366 C186.841,24.044 186.011,23.869 184.77,23.869 L174.497,23.869 L174.497,29.624 L167.576,29.624 L167.576,7.027 L185.715,7.027" fill="#2F2F2C"/>
    <path class="sc-light" d="M219.438,15.203 L219.438,14.976 C219.438,14.098 219.15,13.448 218.566,13.035 C217.981,12.62 217.061,12.413 215.799,12.413 L210.277,12.413 C207.913,12.413 206.398,12.699 205.719,13.267 C205.048,13.842 204.712,15.042 204.712,16.863 L204.712,19.981 C204.712,21.605 205.089,22.729 205.838,23.331 C206.585,23.937 208.071,24.237 210.277,24.237 L214.283,24.237 C216.476,24.237 217.917,24.019 218.599,23.577 C219.28,23.138 219.625,22.314 219.625,21.124 L219.625,20.876 L226.625,20.876 C226.625,20.902 226.631,20.962 226.631,21.036 C226.672,21.702 226.687,22.194 226.687,22.52 C226.687,23.974 226.498,25.171 226.137,26.122 C225.779,27.065 225.195,27.819 224.428,28.38 C223.688,28.936 222.707,29.321 221.469,29.552 C220.241,29.794 218.435,29.907 216.063,29.907 L208.358,29.907 C205.994,29.907 204.259,29.778 203.144,29.527 C202.024,29.27 201.077,28.838 200.283,28.227 C199.368,27.512 198.71,26.626 198.295,25.57 C197.881,24.519 197.672,23.198 197.672,21.592 L197.672,15.478 C197.672,12.225 198.452,9.961 199.983,8.674 C201.525,7.381 204.314,6.745 208.358,6.745 L216.063,6.745 C218.538,6.745 220.367,6.858 221.545,7.075 C222.711,7.305 223.638,7.675 224.314,8.213 C225.037,8.751 225.561,9.497 225.911,10.426 C226.249,11.359 226.412,12.53 226.412,13.924 C226.412,14.264 226.412,14.52 226.412,14.698 C226.406,14.881 226.385,15.047 226.366,15.203 L219.438,15.203" fill="#C8C7C1"/>
    <path class="sc-light" d="M246.93,12.662 L235.975,12.662 L235.975,18.203 L246.93,18.203 C247.854,18.203 248.491,17.985 248.857,17.557 C249.226,17.125 249.418,16.346 249.418,15.212 C249.418,14.322 249.221,13.67 248.828,13.267 C248.437,12.857 247.796,12.662 246.93,12.662 z M247.193,7.027 C250.778,7.027 253.217,7.56 254.512,8.625 C255.821,9.69 256.47,11.631 256.47,14.449 C256.47,16.406 256.173,17.861 255.604,18.813 C255.023,19.763 254.057,20.407 252.69,20.722 C253.889,21.009 254.789,21.511 255.385,22.227 C255.984,22.948 256.291,23.876 256.291,25.024 L256.291,29.624 L249.353,29.624 L249.353,26.203 C249.353,25.315 249.143,24.703 248.732,24.366 C248.309,24.044 247.479,23.869 246.242,23.869 L235.975,23.869 L235.975,29.624 L229.054,29.624 L229.054,7.027 L247.193,7.027" fill="#C8C7C1"/>
    <path class="sc-light" d="M266.073,29.624 L259.35,29.624 L259.35,7.027 L269.556,7.027 L277.617,21.134 L285.822,7.027 L295.875,7.027 L295.875,29.624 L289.193,29.624 L289.193,13.52 L279.853,29.624 L275.337,29.624 L266.073,13.52 L266.073,29.624" fill="#C8C7C1"/>
    <path class="sc-light" d="M298.304,28.014 L298.503,28.014 C298.729,28.014 298.923,27.931 298.923,27.718 C298.923,27.565 298.813,27.415 298.503,27.415 C298.412,27.415 298.352,27.421 298.304,27.428 L298.304,28.014 z M298.304,28.971 L298.027,28.971 L298.027,27.241 C298.173,27.222 298.311,27.201 298.518,27.201 C298.778,27.201 298.95,27.256 299.054,27.331 C299.157,27.407 299.213,27.524 299.213,27.689 C299.213,27.917 299.061,28.055 298.875,28.11 L298.875,28.123 C299.026,28.151 299.129,28.288 299.164,28.544 C299.205,28.811 299.247,28.915 299.274,28.971 L298.984,28.971 C298.943,28.915 298.902,28.757 298.867,28.529 C298.826,28.31 298.715,28.227 298.496,28.227 L298.304,28.227 L298.304,28.971 z M298.593,26.76 C297.91,26.76 297.354,27.346 297.354,28.068 C297.354,28.805 297.91,29.384 298.598,29.384 C299.288,29.391 299.839,28.805 299.839,28.074 C299.839,27.346 299.288,26.76 298.598,26.76 L298.593,26.76 z M298.598,26.519 C299.446,26.519 300.121,27.208 300.121,28.068 C300.121,28.943 299.446,29.624 298.593,29.624 C297.744,29.624 297.057,28.943 297.057,28.068 C297.057,27.208 297.744,26.519 298.593,26.519 L298.598,26.519" fill="#C8C7C1"/>
  </g>
  <defs/>
</svg>
