<svg data-name="Layer 1" xmlns="http://www.w3.org/2000/svg" viewBox="0 0 64 64"><title>ic</title><path d="M34.89 48.16a18.33 18.33 0 0 1-17.32-.52A18.14 18.14 0 0 1 10.94 41a18.31 18.31 0 0 1 0-18.28 18.15 18.15 0 0 1 6.63-6.63 17.8 17.8 0 0 1 9.14-2.44 17.8 17.8 0 0 1 9.14 2.44 18.16 18.16 0 0 1 6.63 6.63 17.7 17.7 0 0 1 2 4.92 17.77 17.77 0 0 1 7.29-1.77A25 25 0 0 0 49 19a25.61 25.61 0 0 0-9.36-9.36 25.16 25.16 0 0 0-12.93-3.48 25.16 25.16 0 0 0-12.9 3.45A25.61 25.61 0 0 0 4.45 19 25.16 25.16 0 0 0 1 31.87a25.15 25.15 0 0 0 3.45 12.91 25.59 25.59 0 0 0 9.36 9.36 25.16 25.16 0 0 0 12.91 3.45 25.2 25.2 0 0 0 11.52-2.7 17.8 17.8 0 0 1-3.35-6.73z"/><path d="M62.49 43.33v10A1.71 1.71 0 0 1 60.77 55H43.63a1.71 1.71 0 0 1-1.71-1.71v-10a1.71 1.71 0 0 1 1.71-1.71h.57v-3.39a8 8 0 0 1 13.64-5.64 7.7 7.7 0 0 1 2.36 5.64v3.43h.57a1.71 1.71 0 0 1 1.71 1.71zm-14.86-1.71h9.14v-3.43a4.57 4.57 0 0 0-9.14 0zM31 20.09v15a1 1 0 0 1-1.07 1.07H19.21a1 1 0 0 1-1.07-1.07v-2.15a1 1 0 0 1 1.07-1.07h7.5V20.09A1 1 0 0 1 27.79 19h2.14A1 1 0 0 1 31 20.09z"/></svg>