<svg data-name="Layer 1" xmlns="http://www.w3.org/2000/svg" viewBox="0 0 64 64"><title>ic</title><path d="M25.64 21h10.72a3.74 3.74 0 0 0 2.49-1.08A3.65 3.65 0 0 0 40 17.5v-6.43a3.17 3.17 0 0 0-1.15-2.21A3.54 3.54 0 0 0 36.36 8H25.64a3.54 3.54 0 0 0-2.49.87 3.17 3.17 0 0 0-1.15 2.2v6.43a3.65 3.65 0 0 0 1.15 2.42A3.74 3.74 0 0 0 25.64 21zM25.64 38h5.42a18.88 18.88 0 0 1 8.49-9.87 3.17 3.17 0 0 0-.92-2.13 3.13 3.13 0 0 0-2.28-1H25.64a3.6 3.6 0 0 0-2.49.94A3.33 3.33 0 0 0 22 28.21v6.43A3.48 3.48 0 0 0 23.15 37a3.67 3.67 0 0 0 2.49 1zM47.07 21h10.72a3.24 3.24 0 0 0 2.28-1.08A3.43 3.43 0 0 0 61 17.5v-6.43a2.94 2.94 0 0 0-.94-2.21A3 3 0 0 0 57.79 8H47.07A3 3 0 0 0 44 11.07v6.43a3.37 3.37 0 0 0 .87 2.42 3.08 3.08 0 0 0 2.2 1.08zM57.79 25H47.07a3.1 3.1 0 0 0-2.28.94 3.38 3.38 0 0 0-.33.4A17.78 17.78 0 0 1 61 31.76v-3.55A3.2 3.2 0 0 0 57.79 25zM14.93 42H4.21a3.17 3.17 0 0 0-2.28 1A3.26 3.26 0 0 0 1 45.36v6.43a3.1 3.1 0 0 0 .94 2.28 3.1 3.1 0 0 0 2.27.93h10.72a2.94 2.94 0 0 0 2.21-.94 3 3 0 0 0 .86-2.27v-6.43a3.2 3.2 0 0 0-.87-2.36 3 3 0 0 0-2.2-1zM30 43.81c0-.59 0-.81.09-1.81h-4.45a3.67 3.67 0 0 0-2.49 1A3.49 3.49 0 0 0 22 45.36v6.43a3.32 3.32 0 0 0 1.15 2.28 3.6 3.6 0 0 0 2.49.94h8.25A18 18 0 0 1 30 43.81zM14.93 25H4.21a3.1 3.1 0 0 0-2.28.94A3.1 3.1 0 0 0 1 28.21v6.43A3.26 3.26 0 0 0 1.94 37a3.17 3.17 0 0 0 2.28 1h10.71a3 3 0 0 0 2.21-1 3.2 3.2 0 0 0 .86-2.36v-6.43a3 3 0 0 0-.87-2.28 2.94 2.94 0 0 0-2.2-.93zM14.93 8H4.21a3 3 0 0 0-2.28.87 2.94 2.94 0 0 0-.93 2.2v6.43a3.43 3.43 0 0 0 .94 2.42A3.24 3.24 0 0 0 4.21 21h10.72a3.08 3.08 0 0 0 2.21-1.08A3.37 3.37 0 0 0 18 17.5v-6.43A3 3 0 0 0 14.93 8zM61.72 38.15a1.65 1.65 0 0 1-.5 1.21L48.29 52.29l-2.43 2.43a1.72 1.72 0 0 1-2.43 0L41 52.29l-6.46-6.46a1.72 1.72 0 0 1 0-2.43L37 41a1.72 1.72 0 0 1 2.43 0l5.25 5.27 11.69-11.76a1.72 1.72 0 0 1 2.43 0l2.43 2.43a1.65 1.65 0 0 1 .49 1.21z"/></svg>