<svg data-name="Layer 1" xmlns="http://www.w3.org/2000/svg" viewBox="0 0 64 64"><title>ic</title><g data-name="&lt;Group&gt;"><path data-name="&lt;Path&gt;" d="M55.27 64L36.78 44.09l-.82.26A13.42 13.42 0 0 1 32 45a13.42 13.42 0 0 1-4-.65l-.82-.26L8.73 64z"/><path data-name="&lt;Path&gt;" d="M64 25.82l-.11-1.11A10.67 10.67 0 0 0 62 20.48 17.71 17.71 0 0 0 57.39 16L42.57 6l-.85-.57-.43-.31-1-.69-.78-.55c-.41-.29-.77-.55-1.08-.75L38 2.85c-.38-.26-.86-.59-1.39-.9l-.53-.32a8.28 8.28 0 0 0-1.78-.9 2.91 2.91 0 0 1-.41-.19A4.16 4.16 0 0 0 32 0a4.1 4.1 0 0 0-1.88.55 3 3 0 0 1-.41.19 6 6 0 0 0-1.7 1 6.75 6.75 0 0 1-.6.42q-1.08.62-1.84 1.11t-1.9 1.24l-1.4 1q-3 2.07-8.76 5.9L6.66 16a18.44 18.44 0 0 0-4.4 4.19A9.89 9.89 0 0 0 0 25.91V58.29a5.5 5.5 0 0 0 1.68 4A5.56 5.56 0 0 0 4 63.73a2 2 0 0 1 .51-1.09L23.32 42.4l-2-1.05q-4.59-2.49-16.54-8.51A19 19 0 0 1 4 26.18V26a6.07 6.07 0 0 1 1.42-3.39 14.51 14.51 0 0 1 3.46-3.31l6.85-4.6q5.73-3.84 8.78-5.91l1.45-1Q27 7 27.72 6.59c.45-.29 1-.62 1.64-1a10.34 10.34 0 0 0 1-.67c.19-.14.47-.35.55-.39a6.73 6.73 0 0 0 1-.42l.09-.05.12.06a6.73 6.73 0 0 0 1 .42A6 6 0 0 1 34 5l.63.38c.41.24.78.49 1.11.72l.53.36c.27.17.58.4.93.65l.82.58.98.71.53.37.85.57 14.81 10a13.75 13.75 0 0 1 3.57 3.48A6.45 6.45 0 0 1 60 26.13v.37a19.11 19.11 0 0 1-.86 6.38c-7.14 3.6-12.68 6.43-16.5 8.47l-2 1.05 18.83 20.24a2 2 0 0 1 .53 1.09 5.56 5.56 0 0 0 2.34-1.41 5.5 5.5 0 0 0 1.68-4V29.93c-.08.07-.02-3.98-.02-4.11z"/></g></svg>