<svg data-name="Layer 1" xmlns="http://www.w3.org/2000/svg" viewBox="0 0 64 64"><title>ic</title><path d="M48 11.3a1.92 1.92 0 0 1-.47 2.34L31 30.09v24.77a2 2 0 0 1-1.31 2 2.34 2.34 0 0 1-.84.17 2 2 0 0 1-1.51-.63l-8.57-8.55a2 2 0 0 1-.64-1.5V30.09L1.64 13.64a1.92 1.92 0 0 1-.47-2.34 2 2 0 0 1 2-1.3H46a2 2 0 0 1 2 1.3z"/><path d="M61.72 37.38a1.65 1.65 0 0 1-.5 1.21L48.29 51.53 45.87 54a1.72 1.72 0 0 1-2.43 0L41 51.53l-6.46-6.46a1.72 1.72 0 0 1 0-2.43L37 40.21a1.72 1.72 0 0 1 2.43 0l5.25 5.27 11.69-11.74a1.72 1.72 0 0 1 2.43 0l2.43 2.43a1.65 1.65 0 0 1 .49 1.21z"/></svg>