<svg data-name="Layer 1" xmlns="http://www.w3.org/2000/svg" viewBox="0 0 64 64"><title>ic</title><path d="M34.32 43.12a17.76 17.76 0 0 1 20.56-17.66l1-.94a2.42 2.42 0 0 0 .87-1.61q0-1.24-1.87-1.54L38 18.92 30.5 3.69q-.64-1.37-1.64-1.37t-1.64 1.37l-7.54 15.23-16.8 2.45Q1 21.67 1 22.91a2.55 2.55 0 0 0 .84 1.61L14 36.37l-2.85 16.74a5.21 5.21 0 0 0-.07.67 2 2 0 0 0 .35 1.22 1.22 1.22 0 0 0 1.05.49 2.84 2.84 0 0 0 1.34-.4l15-7.9L36.16 51a17.78 17.78 0 0 1-1.84-7.88z"/><path d="M62.49 42.71V53a1.71 1.71 0 0 1-1.71 1.71H43.63A1.71 1.71 0 0 1 41.92 53V42.71A1.71 1.71 0 0 1 43.63 41h.57v-3.44a8 8 0 0 1 13.64-5.64 7.7 7.7 0 0 1 2.36 5.64V41h.57a1.71 1.71 0 0 1 1.71 1.71zM47.63 41h9.14v-3.44a4.57 4.57 0 0 0-9.14 0z"/></svg>