<?xml version="1.0" encoding="UTF-8"?>
<!DOCTYPE svg PUBLIC "-//W3C//DTD SVG 1.1//EN" "http://www.w3.org/Graphics/SVG/1.1/DTD/svg11.dtd">
<svg version="1.1" xmlns="http://www.w3.org/2000/svg" xmlns:xlink="http://www.w3.org/1999/xlink" x="0" y="0" width="300" height="34" viewBox="0, 0, 300, 34">
  <defs>
    <clipPath id="Clip_1">
      <path d="M0,34 L299.405,34 L299.405,0.606 L0,0.606 z"/>
    </clipPath>
  </defs>
  <g id="Layer_1">
    <path d="M246.21,13.387 L235.257,13.387 L235.257,18.928 L246.21,18.928 C247.136,18.928 247.772,18.711 248.14,18.281 C248.509,17.85 248.7,17.07 248.7,15.937 C248.7,15.047 248.501,14.396 248.11,13.992 C247.718,13.582 247.077,13.387 246.21,13.387 z M246.476,7.752 C250.06,7.752 252.499,8.285 253.794,9.351 C255.103,10.416 255.751,12.355 255.751,15.174 C255.751,17.131 255.454,18.586 254.886,19.538 C254.304,20.487 253.337,21.133 251.972,21.446 C253.169,21.734 254.069,22.236 254.665,22.953 C255.267,23.674 255.573,24.602 255.573,25.75 L255.573,30.35 L248.634,30.35 L248.634,26.928 C248.634,26.041 248.425,25.428 248.015,25.092 C247.591,24.77 246.761,24.594 245.524,24.594 L235.257,24.594 L235.257,30.35 L228.335,30.35 L228.335,7.752 L246.476,7.752" fill="#cecccb"/>
    <path d="M42.684,22.812 L49.488,22.802 L49.488,23.211 C49.488,24.074 49.699,24.662 50.117,24.954 C50.536,25.258 51.412,25.409 52.748,25.409 L61.416,25.409 C62.266,25.409 62.875,25.262 63.242,24.979 C63.604,24.69 63.779,24.206 63.779,23.537 C63.779,22.861 63.576,22.365 63.154,22.078 C62.736,21.779 61.83,21.588 60.441,21.48 L49.595,21.238 C46.875,21.156 45.04,20.643 44.082,19.695 C43.126,18.744 42.649,17 42.649,14.494 C42.649,13.2 42.774,12.139 43.023,11.294 C43.275,10.461 43.685,9.754 44.244,9.197 C44.9,8.572 45.76,8.129 46.83,7.866 C47.901,7.597 49.635,7.47 52.038,7.47 L62.564,7.47 C65.168,7.47 67.049,7.941 68.199,8.891 C69.344,9.846 69.914,11.381 69.914,13.517 C69.914,13.659 69.914,13.812 69.91,13.975 C69.908,14.133 69.893,14.396 69.857,14.758 L63.217,14.758 L63.217,14.668 C63.217,13.926 63.031,13.375 62.652,13.006 C62.268,12.635 61.707,12.453 60.943,12.453 L52.988,12.453 C51.668,12.453 50.794,12.582 50.369,12.844 C49.942,13.105 49.729,13.572 49.729,14.221 C49.729,14.866 49.924,15.334 50.307,15.625 C50.689,15.908 51.399,16.094 52.436,16.176 L63.779,16.358 C66.369,16.43 68.189,17.013 69.242,18.105 C70.307,19.199 70.828,21.068 70.828,23.707 C70.828,25.277 70.635,26.496 70.25,27.352 C69.857,28.218 69.201,28.945 68.281,29.551 C67.67,29.941 66.85,30.213 65.81,30.38 C64.773,30.549 63.254,30.633 61.291,30.633 L52.096,30.633 C48.315,30.633 45.788,30.207 44.509,29.357 C43.233,28.51 42.593,26.928 42.593,24.625 C42.593,24.48 42.602,24.262 42.616,23.956 C42.63,23.645 42.656,23.263 42.684,22.812" fill="#343433"/>
    <path d="M73.221,7.752 L80.107,7.752 L80.107,21.152 C80.107,22.676 80.447,23.699 81.141,24.219 C81.838,24.743 83.344,25.003 85.674,25.003 L89.598,25.003 C91.535,25.003 92.83,24.727 93.49,24.174 C94.15,23.62 94.475,22.617 94.475,21.152 L94.475,7.752 L101.402,7.752 L101.402,23.287 C101.402,25.959 100.679,27.847 99.251,28.963 C97.816,30.068 95.336,30.633 91.801,30.633 L84.086,30.633 C79.949,30.633 77.1,30.102 75.549,29.041 C73.988,27.973 73.221,26.057 73.221,23.287 L73.221,7.752" fill="#343433"/>
    <path d="M125.73,15.873 L125.73,15.811 C125.73,14.79 125.423,14.086 124.791,13.709 C124.16,13.328 122.75,13.138 120.544,13.138 L116.517,13.138 C114.164,13.138 112.654,13.419 111.988,13.984 C111.328,14.551 110.992,15.736 110.992,17.553 L110.992,20.707 C110.992,22.33 111.367,23.454 112.111,24.057 C112.869,24.662 114.341,24.962 116.552,24.962 L120.544,24.962 C122.525,24.962 123.884,24.787 124.64,24.427 C125.384,24.07 125.763,23.454 125.763,22.567 C125.763,22.447 125.746,22.246 125.703,21.96 C125.703,21.93 125.703,21.902 125.703,21.891 L117.582,21.891 L117.582,17.309 L132.906,17.309 L132.906,24.734 C132.906,26.873 132.107,28.39 130.533,29.283 C128.957,30.182 126.218,30.633 122.302,30.633 L114.621,30.633 C112.267,30.633 110.533,30.503 109.408,30.252 C108.291,29.996 107.337,29.562 106.558,28.951 C105.648,28.237 104.98,27.357 104.568,26.299 C104.158,25.251 103.945,23.924 103.945,22.326 L103.945,16.146 C103.945,12.922 104.714,10.656 106.248,9.386 C107.775,8.106 110.558,7.47 114.591,7.47 L122.302,7.47 C124.798,7.47 126.64,7.583 127.824,7.8 C129.005,8.024 129.939,8.394 130.621,8.925 C131.33,9.47 131.857,10.201 132.197,11.125 C132.537,12.047 132.701,13.211 132.701,14.596 C132.701,14.932 132.701,15.191 132.701,15.371 C132.687,15.555 132.685,15.72 132.673,15.873 L125.73,15.873" fill="#343433"/>
    <path d="M145.085,21.156 L153.774,21.156 L149.386,13.158 L145.085,21.156 z M140.263,30.35 L132.728,30.35 L145.085,7.752 L153.896,7.752 L166.022,30.35 L158.438,30.35 L156.243,26.584 L142.466,26.584 L140.263,30.35" fill="#343433"/>
    <path d="M184.741,13.387 L173.78,13.387 L173.78,18.928 L184.741,18.928 C185.665,18.928 186.306,18.711 186.677,18.281 C187.05,17.85 187.222,17.07 187.222,15.937 C187.222,15.047 187.03,14.396 186.63,13.992 C186.239,13.582 185.614,13.387 184.741,13.387 z M184.997,7.752 C188.581,7.752 191.03,8.285 192.323,9.351 C193.62,10.416 194.272,12.355 194.272,15.174 C194.272,17.131 193.985,18.586 193.405,19.538 C192.821,20.487 191.854,21.133 190.501,21.446 C191.696,21.734 192.593,22.236 193.192,22.953 C193.792,23.674 194.087,24.602 194.087,25.75 L194.087,30.35 L187.171,30.35 L187.171,26.928 C187.171,26.041 186.954,25.428 186.536,25.092 C186.122,24.77 185.292,24.594 184.052,24.594 L173.78,24.594 L173.78,30.35 L166.856,30.35 L166.856,7.752 L184.997,7.752" fill="#343433"/>
    <path d="M218.72,15.928 L218.72,15.701 C218.72,14.823 218.431,14.174 217.847,13.76 C217.263,13.345 216.343,13.138 215.081,13.138 L209.558,13.138 C207.196,13.138 205.681,13.424 205.001,13.992 C204.329,14.566 203.993,15.768 203.993,17.588 L203.993,20.707 C203.993,22.33 204.37,23.454 205.118,24.057 C205.866,24.662 207.354,24.962 209.558,24.962 L213.563,24.962 C215.759,24.962 217.198,24.743 217.88,24.302 C218.562,23.862 218.907,23.039 218.907,21.85 L218.907,21.602 L225.905,21.602 C225.905,21.627 225.913,21.687 225.913,21.762 C225.954,22.428 225.968,22.919 225.968,23.246 C225.968,24.699 225.78,25.897 225.419,26.848 C225.06,27.791 224.478,28.545 223.708,29.105 C222.972,29.66 221.987,30.047 220.751,30.276 C219.524,30.52 217.716,30.633 215.345,30.633 L207.64,30.633 C205.276,30.633 203.542,30.503 202.427,30.252 C201.306,29.996 200.358,29.562 199.565,28.951 C198.649,28.237 197.991,27.352 197.577,26.295 C197.163,25.244 196.954,23.924 196.954,22.316 L196.954,16.203 C196.954,12.95 197.733,10.687 199.265,9.399 C200.806,8.106 203.597,7.47 207.64,7.47 L215.345,7.47 C217.819,7.47 219.647,7.583 220.825,7.8 C221.993,8.03 222.919,8.4 223.595,8.939 C224.317,9.477 224.843,10.223 225.192,11.15 C225.532,12.084 225.694,13.255 225.694,14.648 C225.694,14.989 225.694,15.246 225.694,15.423 C225.687,15.605 225.667,15.772 225.647,15.928 L218.72,15.928" fill="#cecccb"/>
    <path d="M265.354,30.35 L258.63,30.35 L258.63,7.752 L268.839,7.752 L276.899,21.859 L285.106,7.752 L295.157,7.752 L295.157,30.35 L288.476,30.35 L288.476,14.245 L279.136,30.35 L274.62,30.35 L265.354,14.245 L265.354,30.35" fill="#cecccb"/>
    <g clip-path="url(#Clip_1)">
      <path d="M297.587,28.738 L297.786,28.738 C298.013,28.738 298.206,28.655 298.206,28.442 C298.206,28.291 298.097,28.14 297.786,28.14 C297.696,28.14 297.634,28.147 297.587,28.152 L297.587,28.738 z M297.587,29.695 L297.312,29.695 L297.312,27.967 C297.456,27.947 297.593,27.926 297.8,27.926 C298.062,27.926 298.233,27.981 298.337,28.057 C298.44,28.132 298.495,28.249 298.495,28.414 C298.495,28.643 298.345,28.779 298.159,28.835 L298.159,28.848 C298.31,28.876 298.413,29.014 298.448,29.269 C298.489,29.537 298.53,29.641 298.558,29.695 L298.269,29.695 C298.226,29.641 298.187,29.482 298.151,29.254 C298.11,29.034 297.999,28.952 297.78,28.952 L297.587,28.952 L297.587,29.695 z M297.876,27.484 C297.194,27.484 296.636,28.07 296.636,28.793 C296.636,29.529 297.194,30.109 297.882,30.109 C298.571,30.115 299.122,29.529 299.122,28.799 C299.122,28.07 298.571,27.484 297.882,27.484 L297.876,27.484 z M297.882,27.244 C298.729,27.244 299.405,27.933 299.405,28.793 C299.405,29.668 298.729,30.35 297.876,30.35 C297.028,30.35 296.341,29.668 296.341,28.793 C296.341,27.933 297.028,27.244 297.876,27.244 L297.882,27.244" fill="#515251"/>
      <path d="M17.531,12.074 C16.814,12.357 15.643,12.357 14.929,12.074 L2.019,6.96 C1.304,6.677 1.304,6.213 2.019,5.93 L14.929,0.818 C15.643,0.535 16.814,0.535 17.531,0.818 L30.44,5.93 C31.154,6.213 31.154,6.677 30.44,6.96 L17.531,12.074" fill="#D2252D"/>
      <path d="M15.511,33.024 C15.511,33.795 14.926,34.191 14.21,33.909 L1.301,28.798 C0.585,28.514 0,27.654 0,26.883 L0,8.957 C0,8.189 0.585,7.791 1.301,8.074 L14.21,13.188 C14.926,13.469 15.511,14.331 15.511,15.102 L15.511,33.024" fill="#E6E7E4"/>
      <path d="M16.945,33.02 C16.945,33.789 17.531,34.186 18.247,33.904 L31.156,28.791 C31.872,28.508 32.456,27.646 32.456,26.877 L32.456,8.952 C32.456,8.184 31.872,7.784 31.156,8.068 L18.247,13.18 C17.531,13.463 16.945,14.325 16.945,15.094 L16.945,33.02" fill="#515251"/>
    </g>
  </g>
</svg>
