<?xml version="1.0" encoding="UTF-8" standalone="no"?>
<svg width="64px" height="64px" viewBox="0 0 64 64" version="1.1" xmlns="http://www.w3.org/2000/svg" xmlns:xlink="http://www.w3.org/1999/xlink" xmlns:sketch="http://www.bohemiancoding.com/sketch/ns">
    <!-- Generator: Sketch 3.3.3 (12081) - http://www.bohemiancoding.com/sketch -->
    <title>ic-touchid</title>
    <desc>Created with Sketch.</desc>
    <defs></defs>
    <g id="Page-1" stroke="none" stroke-width="1" fill="none" fill-rule="evenodd" sketch:type="MSPage">
        <g id="ic-touchid" sketch:type="MSArtboardGroup" fill="#000000">
            <g id="Imported-Layers" sketch:type="MSLayerGroup" transform="translate(1.000000, 1.000000)">
                <path d="M2.09,36.187 C1.623,36.187 1.212,35.847 1.138,35.371 C-0.033,27.875 1.636,20.264 5.838,13.94 C9.566,8.328 14.899,4.214 21.258,2.042 C21.763,1.87 22.311,2.139 22.483,2.644 C22.655,3.148 22.386,3.696 21.882,3.869 C15.928,5.902 10.936,9.754 7.445,15.008 C3.511,20.929 1.948,28.055 3.045,35.073 C3.127,35.6 2.767,36.093 2.24,36.175 C2.19,36.183 2.139,36.187 2.09,36.187" id="Fill-1" sketch:type="MSShapeGroup"></path>
                <path d="M45.752,57.061 C45.248,57.061 44.823,56.669 44.79,56.158 C44.138,46.073 38.944,37.086 30.54,31.502 C30.096,31.207 29.975,30.608 30.27,30.164 C30.565,29.72 31.163,29.599 31.608,29.894 C40.518,35.814 46.025,45.342 46.716,56.034 C46.751,56.566 46.347,57.025 45.815,57.059 C45.794,57.06 45.773,57.061 45.752,57.061" id="Fill-2" sketch:type="MSShapeGroup"></path>
                <path d="M42.153,58.823 C41.626,58.823 41.195,58.399 41.189,57.871 C41.141,54.025 40.333,50.291 38.789,46.77 C38.575,46.282 38.798,45.713 39.285,45.499 C39.773,45.286 40.343,45.507 40.557,45.995 C42.205,49.754 43.067,53.741 43.119,57.846 C43.125,58.379 42.699,58.817 42.166,58.823 L42.153,58.823" id="Fill-3" sketch:type="MSShapeGroup"></path>
                <path d="M38.475,60.045 C38.465,60.045 38.454,60.045 38.443,60.044 C37.91,60.026 37.493,59.58 37.511,59.048 C37.777,51.043 34.145,43.378 27.796,38.544 C27.372,38.221 27.29,37.616 27.613,37.192 C27.936,36.768 28.541,36.686 28.965,37.008 C35.811,42.221 39.726,50.483 39.439,59.112 C39.422,59.633 38.994,60.045 38.475,60.045" id="Fill-4" sketch:type="MSShapeGroup"></path>
                <path d="M52.459,51.735 C52.004,51.735 51.599,51.412 51.512,50.948 C50.33,44.644 47.608,38.673 43.638,33.681 C43.306,33.263 43.375,32.656 43.792,32.325 C44.209,31.993 44.817,32.062 45.148,32.479 C49.313,37.717 52.169,43.98 53.409,50.593 C53.507,51.116 53.162,51.621 52.638,51.719 C52.578,51.73 52.518,51.735 52.459,51.735" id="Fill-5" sketch:type="MSShapeGroup"></path>
                <path d="M31.065,60.998 C31.033,60.998 31.001,60.997 30.968,60.993 C30.438,60.941 30.051,60.468 30.104,59.938 C30.401,56.951 29.917,53.918 28.706,51.169 C28.491,50.681 28.712,50.112 29.2,49.897 C29.687,49.683 30.258,49.903 30.472,50.391 C31.817,53.444 32.354,56.812 32.024,60.129 C31.974,60.626 31.555,60.998 31.065,60.998" id="Fill-6" sketch:type="MSShapeGroup"></path>
                <path d="M27.092,47.639 C26.81,47.639 26.531,47.517 26.34,47.28 C25.254,45.933 23.933,44.74 22.415,43.731 C15.232,38.958 13.27,29.232 18.042,22.048 C22.815,14.866 32.542,12.905 39.724,17.677 L40.245,18.023 L40.244,18.03 C44.962,21.251 49.027,25.218 52.334,29.828 C52.644,30.261 52.545,30.864 52.112,31.174 C51.678,31.484 51.076,31.385 50.766,30.953 C47.475,26.365 43.401,22.44 38.656,19.287 L38.431,19.138 C32.158,15.142 23.784,16.895 19.65,23.116 C15.466,29.413 17.185,37.94 23.482,42.123 C25.165,43.241 26.632,44.569 27.842,46.068 C28.176,46.483 28.112,47.091 27.697,47.425 C27.518,47.569 27.304,47.639 27.092,47.639" id="Fill-7" sketch:type="MSShapeGroup"></path>
                <path d="M57.868,43.588 C57.468,43.588 57.094,43.337 56.956,42.938 C55.982,40.114 54.733,37.375 53.245,34.797 C52.978,34.336 53.136,33.746 53.598,33.48 C54.059,33.211 54.65,33.371 54.916,33.832 C56.466,36.516 57.767,39.368 58.781,42.308 C58.954,42.812 58.687,43.361 58.183,43.535 C58.079,43.571 57.973,43.588 57.868,43.588" id="Fill-8" sketch:type="MSShapeGroup"></path>
                <path d="M13.869,25.296 C13.758,25.296 13.644,25.277 13.533,25.236 C13.034,25.05 12.779,24.495 12.965,23.995 C13.481,22.605 14.163,21.268 14.991,20.021 C18.209,15.178 23.376,12.07 29.168,11.494 C29.7,11.443 30.171,11.828 30.224,12.358 C30.276,12.889 29.889,13.361 29.359,13.414 C24.146,13.933 19.495,16.73 16.598,21.09 C15.853,22.212 15.239,23.416 14.774,24.667 C14.629,25.056 14.261,25.296 13.869,25.296" id="Fill-9" sketch:type="MSShapeGroup"></path>
                <path d="M13.076,44.34 C12.773,44.34 12.474,44.197 12.287,43.93 C6.793,36.126 6.657,25.946 11.94,17.994 C18.948,7.447 33.232,4.568 43.778,11.575 C43.853,11.626 45.412,12.687 46.189,13.263 C46.617,13.58 46.706,14.185 46.389,14.613 C46.072,15.041 45.468,15.131 45.039,14.813 C44.294,14.26 42.718,13.188 42.702,13.177 C33.049,6.764 19.967,9.401 13.548,19.062 C8.709,26.346 8.833,35.671 13.864,42.819 C14.171,43.255 14.067,43.857 13.631,44.164 C13.462,44.283 13.268,44.34 13.076,44.34" id="Fill-10" sketch:type="MSShapeGroup"></path>
                <path d="M60.399,31.556 C60.066,31.556 59.742,31.384 59.564,31.075 C56.646,26.037 52.953,21.531 48.587,17.683 C48.187,17.331 48.148,16.721 48.501,16.321 C48.852,15.921 49.462,15.883 49.862,16.235 C54.386,20.222 58.212,24.889 61.233,30.108 C61.5,30.569 61.343,31.16 60.882,31.426 C60.73,31.514 60.563,31.556 60.399,31.556" id="Fill-11" sketch:type="MSShapeGroup"></path>
                <path d="M59.122,23.112 C58.834,23.112 58.55,22.985 58.36,22.74 C54.542,17.837 49.961,13.593 44.743,10.126 C37.293,5.176 27.715,4.648 19.747,8.747 C19.274,8.991 18.691,8.804 18.447,8.33 C18.204,7.856 18.39,7.275 18.864,7.031 C27.454,2.612 37.779,3.182 45.81,8.518 C51.202,12.101 55.937,16.487 59.883,21.555 C60.21,21.975 60.135,22.581 59.714,22.909 C59.538,23.046 59.329,23.112 59.122,23.112" id="Fill-12" sketch:type="MSShapeGroup"></path>
                <path d="M15.931,56.771 C15.761,56.771 15.589,56.726 15.433,56.632 L15.204,56.494 C14.903,56.314 14.601,56.132 14.306,55.936 C8.537,52.104 4.367,46.602 2.245,40.026 C2.081,39.518 2.36,38.974 2.867,38.811 C3.373,38.648 3.918,38.926 4.081,39.433 C6.068,45.589 9.973,50.74 15.374,54.329 C15.643,54.508 15.92,54.674 16.197,54.839 L16.431,54.98 C16.887,55.255 17.033,55.849 16.758,56.305 C16.576,56.605 16.258,56.771 15.931,56.771" id="Fill-13" sketch:type="MSShapeGroup"></path>
                <path d="M23.787,60.084 C23.76,60.084 23.733,60.083 23.706,60.081 C23.175,60.037 22.78,59.571 22.824,59.04 C23.126,55.382 21.417,51.851 18.366,49.824 C17.31,49.122 16.341,48.366 15.484,47.577 C15.092,47.216 15.067,46.605 15.428,46.213 C15.789,45.821 16.4,45.797 16.792,46.158 C17.573,46.878 18.463,47.571 19.434,48.216 C23.071,50.632 25.107,54.84 24.747,59.198 C24.705,59.703 24.283,60.084 23.787,60.084" id="Fill-14" sketch:type="MSShapeGroup"></path>
                <path d="M20.149,58.894 C19.633,58.894 19.205,58.486 19.186,57.965 C19.108,55.919 18.042,54.02 16.332,52.885 C10.408,48.948 6.371,42.94 4.965,35.968 C3.559,28.995 4.953,21.892 8.889,15.967 C10.542,13.48 12.573,11.31 14.927,9.516 C15.351,9.193 15.956,9.275 16.279,9.699 C16.602,10.122 16.52,10.728 16.096,11.051 C13.914,12.714 12.03,14.728 10.497,17.035 C6.845,22.531 5.553,29.119 6.857,35.586 C8.16,42.054 11.905,47.626 17.401,51.277 C19.625,52.755 21.013,55.228 21.114,57.893 C21.134,58.425 20.719,58.873 20.186,58.894 L20.149,58.894" id="Fill-15" sketch:type="MSShapeGroup"></path>
                <path d="M27.401,60.771 C27.366,60.771 27.331,60.769 27.295,60.765 C26.765,60.707 26.383,60.231 26.441,59.702 C26.999,54.584 24.679,49.633 20.387,46.783 C14.388,42.797 11.123,35.867 11.867,28.698 C11.921,28.168 12.394,27.78 12.926,27.838 C13.456,27.893 13.841,28.367 13.786,28.897 C13.117,35.35 16.055,41.588 21.455,45.175 C26.35,48.426 28.996,54.073 28.359,59.911 C28.305,60.405 27.887,60.771 27.401,60.771" id="Fill-16" sketch:type="MSShapeGroup"></path>
                <path d="M34.767,60.763 C34.744,60.763 34.721,60.762 34.697,60.761 C34.166,60.722 33.766,60.26 33.804,59.729 C34.346,52.176 30.748,44.87 24.413,40.661 C21.749,38.891 19.939,36.191 19.314,33.059 C18.69,29.932 19.322,26.741 21.093,24.075 C21.71,23.148 22.447,22.314 23.286,21.597 C23.691,21.25 24.3,21.298 24.646,21.703 C24.993,22.108 24.945,22.717 24.54,23.063 C23.837,23.664 23.218,24.364 22.701,25.143 C21.214,27.381 20.683,30.058 21.206,32.682 C21.73,35.307 23.248,37.569 25.481,39.053 C32.395,43.647 36.321,51.622 35.729,59.867 C35.692,60.375 35.268,60.763 34.767,60.763" id="Fill-17" sketch:type="MSShapeGroup"></path>
                <path d="M49.214,54.717 C48.734,54.717 48.318,54.358 48.257,53.869 C46.983,43.482 41.267,34.213 32.574,28.437 C31.324,27.607 29.633,27.949 28.803,29.198 C27.973,30.447 28.306,32.134 29.547,32.958 C33.087,35.31 36.016,38.256 38.252,41.713 C38.542,42.16 38.414,42.758 37.967,43.047 C37.519,43.337 36.922,43.208 36.632,42.761 C34.54,39.528 31.797,36.77 28.479,34.565 C26.352,33.153 25.777,30.266 27.195,28.13 C28.614,25.994 31.506,25.411 33.642,26.83 C42.805,32.917 48.83,42.687 50.173,53.634 C50.237,54.163 49.861,54.644 49.332,54.709 C49.293,54.714 49.253,54.717 49.214,54.717" id="Fill-18" sketch:type="MSShapeGroup"></path>
                <path d="M24.922,35.697 C24.607,35.697 24.298,35.543 24.113,35.26 C22.288,32.473 22.3,28.878 24.144,26.103 C25.373,24.253 27.249,22.993 29.426,22.554 C31.602,22.115 33.82,22.55 35.669,23.78 C37.914,25.271 40.033,27.002 41.967,28.926 C42.345,29.301 42.347,29.912 41.971,30.29 C41.595,30.668 40.984,30.67 40.606,30.294 C38.761,28.459 36.741,26.808 34.601,25.387 C33.181,24.443 31.478,24.109 29.807,24.446 C28.135,24.783 26.695,25.75 25.752,27.171 C24.336,29.302 24.326,32.062 25.728,34.203 C26.02,34.649 25.895,35.247 25.449,35.539 C25.286,35.646 25.103,35.697 24.922,35.697" id="Fill-19" sketch:type="MSShapeGroup"></path>
                <path d="M55.391,48.053 C54.962,48.053 54.57,47.766 54.457,47.331 C51.787,37.081 45.454,28.206 36.627,22.341 C34.173,20.711 31.145,20.237 28.317,21.04 C27.804,21.186 27.271,20.888 27.126,20.376 C26.98,19.863 27.277,19.33 27.79,19.184 C31.16,18.227 34.771,18.791 37.694,20.733 C46.918,26.861 53.534,36.134 56.325,46.845 C56.459,47.361 56.15,47.888 55.634,48.022 C55.553,48.043 55.471,48.053 55.391,48.053" id="Fill-20" sketch:type="MSShapeGroup"></path>
                <path d="M59.672,38.178 C59.303,38.178 58.951,37.965 58.79,37.606 C54.908,28.914 48.647,21.523 40.685,16.233 C38.579,14.834 36.254,13.928 33.775,13.538 C33.249,13.455 32.889,12.962 32.972,12.435 C33.054,11.909 33.55,11.55 34.075,11.632 C36.83,12.065 39.413,13.072 41.753,14.626 C50.02,20.118 56.52,27.793 60.552,36.819 C60.77,37.306 60.552,37.877 60.065,38.094 C59.937,38.151 59.803,38.178 59.672,38.178" id="Fill-21" sketch:type="MSShapeGroup"></path>
                <path d="M52.236,11.338 C51.983,11.338 51.73,11.239 51.54,11.042 C50.145,9.592 48.538,8.259 46.765,7.08 C40.68,3.038 33.368,1.507 26.178,2.766 C25.653,2.858 25.153,2.507 25.061,1.982 C24.969,1.457 25.32,0.957 25.845,0.865 C33.524,-0.481 41.334,1.155 47.833,5.473 C49.723,6.729 51.438,8.153 52.931,9.704 C53.3,10.088 53.288,10.699 52.905,11.068 C52.717,11.248 52.476,11.338 52.236,11.338" id="Fill-22" sketch:type="MSShapeGroup"></path>
            </g>
        </g>
    </g>
</svg>