<?xml version="1.0" encoding="UTF-8" standalone="no"?>
<svg id="Layer_1" xmlns="http://www.w3.org/2000/svg" xml:space="preserve" viewBox="0 0 249 28" version="1.1" y="0px" x="0px" xmlns:xlink="http://www.w3.org/1999/xlink" enable-background="new 0 0 249 28">
<g id="XMLID_34_" fill="#b9bec6">
	<g id="XMLID_61_">
		<path id="XMLID_64_" d="m14.699 9.616c-0.601 0.237-1.583 0.237-2.181 0l-10.825-4.288c-0.599-0.237-0.599-0.626 0-0.864l10.825-4.286c0.598-0.237 1.58-0.237 2.181 0l10.824 4.286c0.599 0.238 0.599 0.626 0 0.864l-10.824 4.288z"/>
		<path id="XMLID_63_" d="m13.006 27.182c0 0.646-0.49 0.978-1.091 0.743l-10.824-4.287c-0.6-0.238-1.091-0.958-1.091-1.605v-15.031c0-0.644 0.491-0.978 1.091-0.74l10.825 4.287c0.6 0.237 1.091 0.959 1.091 1.605v15.028z"/>
		<path id="XMLID_62_" d="m14.208 27.177c0 0.646 0.491 0.978 1.092 0.742l10.823-4.286c0.6-0.238 1.091-0.96 1.091-1.605v-15.029c0-0.645-0.49-0.98-1.091-0.742l-10.823 4.286c-0.601 0.238-1.092 0.961-1.092 1.605v15.029z"/>
	</g>
	<g id="XMLID_41_">
		<path id="XMLID_58_" d="m207.26 5.385c3.006 0 5.05 0.446 6.136 1.34 1.098 0.893 1.642 2.519 1.642 4.882 0 1.641-0.249 2.862-0.725 3.66-0.487 0.796-1.298 1.336-2.443 1.6 1.005 0.241 1.76 0.662 2.259 1.263 0.503 0.604 0.76 1.382 0.76 2.345v3.857h-5.818v-2.868c0-0.744-0.176-1.258-0.52-1.54-0.355-0.27-1.051-0.417-2.088-0.417h-8.609v4.825h-5.803v-18.947h15.2zm-0.22 4.724h-9.185v4.646h9.185c0.775 0 1.309-0.183 1.616-0.542 0.309-0.362 0.47-1.015 0.47-1.966 0-0.746-0.165-1.293-0.495-1.631-0.34-0.343-0.87-0.507-1.6-0.507z"/>
		<path id="XMLID_56_" d="m36.389 18.012l5.706-0.008v0.343c0 0.723 0.176 1.217 0.527 1.461 0.351 0.255 1.086 0.382 2.206 0.382h7.268c0.714 0 1.224-0.124 1.531-0.362 0.304-0.242 0.452-0.647 0.452-1.209 0-0.567-0.171-0.983-0.525-1.223-0.35-0.251-1.111-0.411-2.276-0.501l-9.094-0.203c-2.28-0.069-3.819-0.499-4.622-1.294-0.802-0.798-1.2-2.26-1.2-4.361 0-1.084 0.104-1.975 0.313-2.682 0.212-0.699 0.554-1.292 1.024-1.759 0.549-0.524 1.271-0.896 2.167-1.115 0.899-0.226 2.352-0.332 4.367-0.332h8.826c2.183 0 3.76 0.395 4.725 1.191 0.96 0.801 1.438 2.088 1.438 3.879 0 0.119 0 0.247-0.003 0.383-0.002 0.133-0.013 0.353-0.043 0.658h-5.569v-0.076c0-0.622-0.156-1.083-0.474-1.394-0.322-0.311-0.793-0.463-1.433-0.463h-6.67c-1.108 0-1.841 0.109-2.196 0.328-0.358 0.219-0.536 0.61-0.536 1.154 0 0.542 0.162 0.933 0.483 1.178 0.321 0.237 0.916 0.392 1.786 0.462l9.512 0.153c2.171 0.06 3.696 0.549 4.58 1.464 0.892 0.917 1.329 2.485 1.329 4.697 0 1.317-0.162 2.338-0.485 3.056-0.328 0.727-0.879 1.336-1.651 1.844-0.512 0.328-1.199 0.555-2.072 0.696-0.869 0.141-2.143 0.211-3.789 0.211h-7.71c-3.17 0-5.289-0.357-6.361-1.069-1.069-0.712-1.607-2.037-1.607-3.969 0-0.121 0.009-0.305 0.02-0.561 0.011-0.261 0.033-0.581 0.056-0.959z"/>
		<path id="XMLID_54_" d="m61.994 5.385h5.773v11.235c0 1.277 0.287 2.136 0.868 2.571 0.585 0.441 1.847 0.658 3.8 0.658h3.29c1.625 0 2.711-0.233 3.265-0.696 0.553-0.463 0.825-1.304 0.825-2.533v-11.235h5.808v13.025c0 2.239-0.607 3.823-1.802 4.759-1.203 0.926-3.284 1.399-6.248 1.399h-6.468c-3.47 0-5.858-0.445-7.159-1.335-1.308-0.896-1.951-2.502-1.951-4.824v-13.024z"/>
		<path id="XMLID_52_" d="m106.02 12.193v-0.052c0-0.855-0.258-1.446-0.789-1.762-0.528-0.319-1.71-0.478-3.56-0.478h-3.376c-1.973 0-3.239 0.236-3.798 0.709-0.554 0.475-0.834 1.47-0.834 2.992v2.645c0 1.362 0.314 2.304 0.938 2.808 0.635 0.508 1.871 0.76 3.724 0.76h3.346c1.662 0 2.802-0.147 3.436-0.449 0.623-0.3 0.941-0.816 0.941-1.559 0-0.102-0.014-0.269-0.051-0.51v-0.058h-6.808v-3.842h12.849v6.226c0 1.794-0.669 3.066-1.989 3.814-1.322 0.754-3.618 1.132-6.903 1.132h-6.44c-1.974 0-3.428-0.108-4.372-0.319-0.936-0.215-1.735-0.578-2.388-1.091-0.764-0.599-1.324-1.337-1.67-2.225-0.342-0.878-0.521-1.991-0.521-3.331v-5.181c0-2.704 0.645-4.602 1.929-5.668 1.281-1.073 3.615-1.607 6.997-1.607h6.465c2.093 0 3.637 0.095 4.63 0.277 0.992 0.188 1.773 0.497 2.346 0.943 0.593 0.457 1.035 1.069 1.32 1.844 0.287 0.773 0.424 1.749 0.424 2.91v0.651c-0.011 0.153-0.015 0.292-0.023 0.42h-5.83z"/>
		<path id="XMLID_49_" d="m118.21 24.331h-6.32l10.36-18.946h7.39l10.165 18.946h-6.357l-1.841-3.156h-11.552l-1.84 3.156zm4.04-7.708h7.287l-3.679-6.706-3.61 6.706z"/>
		<path id="XMLID_46_" d="m155.71 5.385c3.006 0 5.059 0.446 6.144 1.34 1.086 0.893 1.633 2.519 1.633 4.882 0 1.641-0.24 2.862-0.728 3.66-0.49 0.796-1.3 1.336-2.434 1.6 1.002 0.241 1.753 0.662 2.257 1.263 0.504 0.604 0.751 1.382 0.751 2.345v3.857h-5.8v-2.868c0-0.744-0.182-1.258-0.531-1.54-0.348-0.27-1.044-0.417-2.085-0.417h-8.613v4.825h-5.803v-18.947h15.2zm-0.21 4.724h-9.193v4.646h9.193c0.774 0 1.312-0.183 1.622-0.542 0.311-0.362 0.455-1.015 0.455-1.966 0-0.746-0.16-1.293-0.494-1.631-0.33-0.343-0.86-0.507-1.59-0.507z"/>
		<path id="XMLID_44_" d="m183.99 12.24v-0.191c0-0.735-0.242-1.281-0.731-1.627-0.49-0.348-1.263-0.522-2.321-0.522h-4.63c-1.982 0-3.252 0.24-3.822 0.716-0.563 0.482-0.844 1.489-0.844 3.016v2.614c0 1.362 0.316 2.304 0.944 2.808 0.626 0.508 1.873 0.76 3.722 0.76h3.359c1.838 0 3.047-0.183 3.618-0.553 0.572-0.369 0.861-1.059 0.861-2.057v-0.208h5.869c0 0.022 0.005 0.072 0.005 0.134 0.034 0.558 0.047 0.971 0.047 1.245 0 1.218-0.158 2.222-0.461 3.02-0.3 0.791-0.789 1.423-1.433 1.893-0.62 0.466-1.443 0.789-2.481 0.983-1.029 0.203-2.544 0.298-4.532 0.298h-6.46c-1.982 0-3.437-0.108-4.372-0.319-0.938-0.215-1.733-0.578-2.398-1.091-0.767-0.599-1.319-1.342-1.667-2.227-0.347-0.882-0.522-1.989-0.522-3.336v-5.126c0-2.728 0.654-4.625 1.938-5.705 1.293-1.084 3.631-1.618 7.022-1.618h6.46c2.075 0 3.608 0.095 4.596 0.277 0.978 0.193 1.755 0.503 2.322 0.955 0.606 0.45 1.045 1.076 1.339 1.855 0.283 0.782 0.42 1.765 0.42 2.933v0.649c-0.005 0.153-0.023 0.293-0.038 0.423h-5.82z"/>
		<path id="XMLID_42_" d="m223.09 24.331h-5.637v-18.946h8.557l6.759 11.828 6.88-11.828h8.429v18.946h-5.602v-13.502l-7.832 13.502h-3.786l-7.767-13.502v13.502z"/>
	</g>
</g>
</svg>
