<?xml version="1.0" encoding="UTF-8" standalone="no"?>
<svg width="45px" height="77px" viewBox="0 0 45 77" version="1.1" xmlns="http://www.w3.org/2000/svg" xmlns:xlink="http://www.w3.org/1999/xlink">
    <g id="pattern" stroke="none" stroke-width="1" fill="none" fill-rule="evenodd" opacity="0.05">
        <g id="pattern-tile" transform="translate(-34.000000, -115.000000)" fill="#FFFFFF">
            <g id="sugarpattern2_tiled2_sm" transform="translate(34.000000, 115.000000)">
                <g id="tile_ref">
                    <polygon id="Shape" points="45 0 45 1.7 40.7 0"></polygon>
                    <path d="M45,73.4 L45,77 L40.7,77 L40,76.7 C39.1,76.3 39.1,75.7 40,75.3 L45,73.4 L45,73.4 Z" id="Shape"></path>
                    <path d="M32.6,76.7 L31.8,77 L0,77 L0,73.4 L12.1,68.6 C13.2,68.2 14.4,68.2 15.5,68.6 L32.6,75.4 C33.5,75.7 33.5,76.3 32.6,76.7 L32.6,76.7 Z" id="Shape"></path>
                    <path d="M45,32.8 L45,42.2 L38,45 C36.9,45.4 35.7,45.4 34.6,45 L17.5,38.2 C16.6,37.8 16.6,37.2 17.5,36.8 L34.5,30 C35.6,29.6 36.8,29.6 37.9,30 L45,32.8 L45,32.8 Z" id="Shape"></path>
                    <path d="M35.4,72.7 C35.4,73.7 34.6,74.2 33.7,73.9 L16.6,67.1 C15.6,66.7 14.9,65.7 14.9,64.6 L14.9,40.9 C14.9,39.9 15.7,39.4 16.6,39.7 L33.7,46.5 C34.7,46.9 35.4,47.9 35.4,49 L35.4,72.7 L35.4,72.7 Z" id="Shape"></path>
                    <path d="M45,44 L45,71.4 L39,73.8 C38.1,74.2 37.3,73.6 37.3,72.6 L37.3,49 C37.3,47.9 38,46.9 39,46.5 L45,44 L45,44 Z" id="Shape"></path>
                    <path d="M45,3.5 L45,30.9 L39,28.5 C38,28.1 37.3,27.1 37.3,26 L37.3,2.4 C37.3,1.4 38.1,0.9 39,1.2 L45,3.5 L45,3.5 Z" id="Shape"></path>
                    <path d="M14.7,34.2 C14.7,35.2 15.5,35.7 16.4,35.4 L33.5,28.6 C34.5,28.2 35.2,27.2 35.2,26.1 L35.2,2.3 C35.2,1.3 34.4,0.8 33.5,1.1 L16.5,7.9 C15.5,8.3 14.8,9.3 14.8,10.4 L14.7,34.2 L14.7,34.2 L14.7,34.2 Z" id="Shape"></path>
                    <path d="M31.8,0 L15.5,6.4 C14.4,6.8 13.2,6.8 12.1,6.4 L0,1.7 L0,0 L31.8,0 L31.8,0 Z" id="Shape"></path>
                    <path d="M10.1,38.2 L0,42.2 L0,32.8 L10.1,36.8 C11,37.2 11,37.8 10.1,38.2 L10.1,38.2 Z" id="Shape"></path>
                    <path d="M12.8,40.8 L12.8,64.5 C12.8,65.6 12.1,66.6 11.1,67 L0,71.4 L0,44 L11,39.6 C12,39.3 12.8,39.8 12.8,40.8 L12.8,40.8 Z" id="Shape"></path>
                    <path d="M12.9,10.5 L12.9,34.2 C12.9,35.2 12.1,35.7 11.2,35.4 L0,30.9 L0,3.5 L11.1,7.9 C12.1,8.4 12.8,9.4 12.9,10.5 L12.9,10.5 Z" id="Shape"></path>
                </g>
            </g>
        </g>
    </g>
</svg>
